<svg width="19" height="22" viewBox="0 0 19 22" fill="none" xmlns="http://www.w3.org/2000/svg">
<path d="M18.555 19.3627L16.9802 6.31257C16.9331 6.077 16.7484 5.88928 16.5167 5.88928H13.1334V4.5697C13.1334 1.8367 11.6508 0 9.42607 0C7.20129 0 5.71872 1.8367 5.71872 4.5697V5.88928H2.05845C1.82674 5.88928 1.6421 6.077 1.59503 6.31257L0.0201509 19.3627C-0.0721713 20.0216 0.159538 20.7283 0.575882 21.1994C0.992236 21.7184 1.64212 22 2.29016 22H16.24C16.888 22 17.5379 21.7166 17.9543 21.1994C18.4159 20.7301 18.6476 20.0234 18.5553 19.3627H18.555ZM6.64565 4.61552C6.64565 2.91865 7.38786 0.988098 9.42616 0.988098C11.4645 0.988098 12.2067 2.92053 12.2067 4.61552V5.93509H6.64565V4.61552ZM17.3043 20.5882C17.0255 20.8716 16.6562 21.0593 16.2851 21.0593H2.29035C1.87399 21.0593 1.50291 20.8716 1.2712 20.5882C1.03949 20.3048 0.9001 19.8815 0.947165 19.4582L2.47501 6.87728H16.0986L17.6282 19.5044C17.6753 19.8816 17.5359 20.3049 17.3042 20.5884L17.3043 20.5882Z" fill="black"/>
</svg>
